<?xml version="1.0" encoding="UTF-8" standalone="no"?><svg xmlns="http://www.w3.org/2000/svg" xmlns:xlink="http://www.w3.org/1999/xlink" contentStyleType="text/css" height="1485px" preserveAspectRatio="none" style="width:1179px;height:1485px;background:#FFFFFF;" version="1.1" viewBox="0 0 1179 1485" width="1179px" zoomAndPan="magnify"><defs/><g><rect fill="#F1F1F1" height="36.2969" rx="12.5" ry="12.5" style="stroke:#181818;stroke-width:1.5;" width="159" x="10" y="723.7109"/><text fill="#000000" font-family="sans-serif" font-size="14" lengthAdjust="spacing" textLength="139" x="20" y="746.7061">Le reti di computer</text><rect fill="#F1F1F1" height="36.2969" rx="12.5" ry="12.5" style="stroke:#181818;stroke-width:1.5;" width="141" x="219" y="526.6719"/><text fill="#000000" font-family="sans-serif" font-size="14" lengthAdjust="spacing" textLength="121" x="229" y="549.667">Come sono fatte</text><rect fill="#F1F1F1" height="36.2969" rx="12.5" ry="12.5" style="stroke:#181818;stroke-width:1.5;" width="687" x="410" y="20"/><text fill="#000000" font-family="sans-serif" font-size="14" lengthAdjust="spacing" textLength="667" x="420" y="42.9951">Due o più computer autonomi interconnessi tramite intefacce, dispositivi e mezzi trasmissivi</text><path d="M360,544.8203 L370,544.8203 C385,544.8203 385,38.1484 400,38.1484 L410,38.1484 " fill="none" style="stroke:#181818;stroke-width:1.0;"/><rect fill="#F1F1F1" height="36.2969" rx="12.5" ry="12.5" style="stroke:#181818;stroke-width:1.5;" width="175" x="410" y="76.2969"/><text fill="#000000" font-family="sans-serif" font-size="14" lengthAdjust="spacing" textLength="155" x="420" y="99.292">Modello Client/Server</text><path d="M360,544.8203 L370,544.8203 C385,544.8203 385,94.4453 400,94.4453 L410,94.4453 " fill="none" style="stroke:#181818;stroke-width:1.0;"/><rect fill="#F1F1F1" height="36.2969" rx="12.5" ry="12.5" style="stroke:#181818;stroke-width:1.5;" width="154" x="410" y="132.5938"/><text fill="#000000" font-family="sans-serif" font-size="14" lengthAdjust="spacing" textLength="134" x="420" y="155.5889">Modello Peer2Peer</text><path d="M360,544.8203 L370,544.8203 C385,544.8203 385,150.7422 400,150.7422 L410,150.7422 " fill="none" style="stroke:#181818;stroke-width:1.0;"/><rect fill="#F1F1F1" height="36.2969" rx="12.5" ry="12.5" style="stroke:#181818;stroke-width:1.5;" width="141" x="410" y="357.7813"/><text fill="#000000" font-family="sans-serif" font-size="14" lengthAdjust="spacing" textLength="121" x="420" y="380.7764">Protocolli di rete</text><rect fill="#F1F1F1" height="36.2969" rx="12.5" ry="12.5" style="stroke:#181818;stroke-width:1.5;" width="111" x="601" y="188.8906"/><text fill="#000000" font-family="sans-serif" font-size="14" lengthAdjust="spacing" textLength="91" x="611" y="211.8857">HTTP/s (app)</text><path d="M551,375.9297 L561,375.9297 C576,375.9297 576,207.0391 591,207.0391 L601,207.0391 " fill="none" style="stroke:#181818;stroke-width:1.0;"/><rect fill="#F1F1F1" height="36.2969" rx="12.5" ry="12.5" style="stroke:#181818;stroke-width:1.5;" width="148" x="601" y="245.1875"/><text fill="#000000" font-family="sans-serif" font-size="14" lengthAdjust="spacing" textLength="128" x="611" y="268.1826">POP3/IMAP4 (app)</text><path d="M551,375.9297 L561,375.9297 C576,375.9297 576,263.3359 591,263.3359 L601,263.3359 " fill="none" style="stroke:#181818;stroke-width:1.0;"/><rect fill="#F1F1F1" height="36.2969" rx="12.5" ry="12.5" style="stroke:#181818;stroke-width:1.5;" width="101" x="601" y="301.4844"/><text fill="#000000" font-family="sans-serif" font-size="14" lengthAdjust="spacing" textLength="81" x="611" y="324.4795">SMTP (app)</text><path d="M551,375.9297 L561,375.9297 C576,375.9297 576,319.6328 591,319.6328 L601,319.6328 " fill="none" style="stroke:#181818;stroke-width:1.0;"/><rect fill="#F1F1F1" height="36.2969" rx="12.5" ry="12.5" style="stroke:#181818;stroke-width:1.5;" width="88" x="601" y="357.7813"/><text fill="#000000" font-family="sans-serif" font-size="14" lengthAdjust="spacing" textLength="68" x="611" y="380.7764">FTP (app)</text><path d="M551,375.9297 L561,375.9297 C576,375.9297 576,375.9297 591,375.9297 L601,375.9297 " fill="none" style="stroke:#181818;stroke-width:1.0;"/><rect fill="#F1F1F1" height="36.2969" rx="12.5" ry="12.5" style="stroke:#181818;stroke-width:1.5;" width="83" x="601" y="414.0781"/><text fill="#000000" font-family="sans-serif" font-size="14" lengthAdjust="spacing" textLength="63" x="611" y="437.0732">TCP (tra)</text><path d="M551,375.9297 L561,375.9297 C576,375.9297 576,432.2266 591,432.2266 L601,432.2266 " fill="none" style="stroke:#181818;stroke-width:1.0;"/><rect fill="#F1F1F1" height="36.2969" rx="12.5" ry="12.5" style="stroke:#181818;stroke-width:1.5;" width="84" x="601" y="470.375"/><text fill="#000000" font-family="sans-serif" font-size="14" lengthAdjust="spacing" textLength="64" x="611" y="493.3701">UDP (tra)</text><path d="M551,375.9297 L561,375.9297 C576,375.9297 576,488.5234 591,488.5234 L601,488.5234 " fill="none" style="stroke:#181818;stroke-width:1.0;"/><rect fill="#F1F1F1" height="36.2969" rx="12.5" ry="12.5" style="stroke:#181818;stroke-width:1.5;" width="78" x="601" y="526.6719"/><text fill="#000000" font-family="sans-serif" font-size="14" lengthAdjust="spacing" textLength="58" x="611" y="549.667">IP (rete)</text><path d="M551,375.9297 L561,375.9297 C576,375.9297 576,544.8203 591,544.8203 L601,544.8203 " fill="none" style="stroke:#181818;stroke-width:1.0;"/><path d="M360,544.8203 L370,544.8203 C385,544.8203 385,375.9297 400,375.9297 L410,375.9297 " fill="none" style="stroke:#181818;stroke-width:1.0;"/><rect fill="#F1F1F1" height="36.2969" rx="12.5" ry="12.5" style="stroke:#181818;stroke-width:1.5;" width="118" x="410" y="751.8594"/><text fill="#000000" font-family="sans-serif" font-size="14" lengthAdjust="spacing" textLength="98" x="420" y="774.8545">Stack ISO/OSI</text><rect fill="#F1F1F1" height="36.2969" rx="12.5" ry="12.5" style="stroke:#181818;stroke-width:1.5;" width="136" x="578" y="582.9688"/><text fill="#000000" font-family="sans-serif" font-size="14" lengthAdjust="spacing" textLength="116" x="588" y="605.9639">Applicazione (7)</text><path d="M528,770.0078 L538,770.0078 C553,770.0078 553,601.1172 568,601.1172 L578,601.1172 " fill="none" style="stroke:#181818;stroke-width:1.0;"/><rect fill="#F1F1F1" height="36.2969" rx="12.5" ry="12.5" style="stroke:#181818;stroke-width:1.5;" width="146" x="578" y="639.2656"/><text fill="#000000" font-family="sans-serif" font-size="14" lengthAdjust="spacing" textLength="126" x="588" y="662.2607">Presentazione (6)</text><path d="M528,770.0078 L538,770.0078 C553,770.0078 553,657.4141 568,657.4141 L578,657.4141 " fill="none" style="stroke:#181818;stroke-width:1.0;"/><rect fill="#F1F1F1" height="36.2969" rx="12.5" ry="12.5" style="stroke:#181818;stroke-width:1.5;" width="106" x="578" y="695.5625"/><text fill="#000000" font-family="sans-serif" font-size="14" lengthAdjust="spacing" textLength="86" x="588" y="718.5576">Sessione (5)</text><path d="M528,770.0078 L538,770.0078 C553,770.0078 553,713.7109 568,713.7109 L578,713.7109 " fill="none" style="stroke:#181818;stroke-width:1.0;"/><rect fill="#F1F1F1" height="36.2969" rx="12.5" ry="12.5" style="stroke:#181818;stroke-width:1.5;" width="113" x="578" y="751.8594"/><text fill="#000000" font-family="sans-serif" font-size="14" lengthAdjust="spacing" textLength="93" x="588" y="774.8545">Trasporto (4)</text><path d="M528,770.0078 L538,770.0078 C553,770.0078 553,770.0078 568,770.0078 L578,770.0078 " fill="none" style="stroke:#181818;stroke-width:1.0;"/><rect fill="#F1F1F1" height="36.2969" rx="12.5" ry="12.5" style="stroke:#181818;stroke-width:1.5;" width="78" x="578" y="808.1563"/><text fill="#000000" font-family="sans-serif" font-size="14" lengthAdjust="spacing" textLength="58" x="588" y="831.1514">Rete (3)</text><path d="M528,770.0078 L538,770.0078 C553,770.0078 553,826.3047 568,826.3047 L578,826.3047 " fill="none" style="stroke:#181818;stroke-width:1.0;"/><rect fill="#F1F1F1" height="36.2969" rx="12.5" ry="12.5" style="stroke:#181818;stroke-width:1.5;" width="143" x="578" y="864.4531"/><text fill="#000000" font-family="sans-serif" font-size="14" lengthAdjust="spacing" textLength="123" x="588" y="887.4482">Collegamento (2)</text><path d="M528,770.0078 L538,770.0078 C553,770.0078 553,882.6016 568,882.6016 L578,882.6016 " fill="none" style="stroke:#181818;stroke-width:1.0;"/><rect fill="#F1F1F1" height="36.2969" rx="12.5" ry="12.5" style="stroke:#181818;stroke-width:1.5;" width="83" x="578" y="920.75"/><text fill="#000000" font-family="sans-serif" font-size="14" lengthAdjust="spacing" textLength="63" x="588" y="943.7451">Fisico (1)</text><path d="M528,770.0078 L538,770.0078 C553,770.0078 553,938.8984 568,938.8984 L578,938.8984 " fill="none" style="stroke:#181818;stroke-width:1.0;"/><path d="M360,544.8203 L370,544.8203 C385,544.8203 385,770.0078 400,770.0078 L410,770.0078 " fill="none" style="stroke:#181818;stroke-width:1.0;"/><rect fill="#F1F1F1" height="36.2969" rx="12.5" ry="12.5" style="stroke:#181818;stroke-width:1.5;" width="331" x="410" y="977.0469"/><text fill="#000000" font-family="sans-serif" font-size="14" lengthAdjust="spacing" textLength="311" x="420" y="1000.042">Tipologie di rete per estensione geografica</text><rect fill="#F1F1F1" height="36.2969" rx="12.5" ry="12.5" style="stroke:#181818;stroke-width:1.5;" width="107" x="791" y="920.75"/><text fill="#000000" font-family="sans-serif" font-size="14" lengthAdjust="spacing" textLength="87" x="801" y="943.7451">LAN o WLAN</text><path d="M741,995.1953 L751,995.1953 C766,995.1953 766,938.8984 781,938.8984 L791,938.8984 " fill="none" style="stroke:#181818;stroke-width:1.0;"/><rect fill="#F1F1F1" height="36.2969" rx="12.5" ry="12.5" style="stroke:#181818;stroke-width:1.5;" width="52" x="791" y="977.0469"/><text fill="#000000" font-family="sans-serif" font-size="14" lengthAdjust="spacing" textLength="32" x="801" y="1000.042">MAN</text><path d="M741,995.1953 L751,995.1953 C766,995.1953 766,995.1953 781,995.1953 L791,995.1953 " fill="none" style="stroke:#181818;stroke-width:1.0;"/><rect fill="#F1F1F1" height="36.2969" rx="12.5" ry="12.5" style="stroke:#181818;stroke-width:1.5;" width="54" x="791" y="1033.3438"/><text fill="#000000" font-family="sans-serif" font-size="14" lengthAdjust="spacing" textLength="34" x="801" y="1056.3389">WAN</text><path d="M741,995.1953 L751,995.1953 C766,995.1953 766,1051.4922 781,1051.4922 L791,1051.4922 " fill="none" style="stroke:#181818;stroke-width:1.0;"/><path d="M360,544.8203 L370,544.8203 C385,544.8203 385,995.1953 400,995.1953 L410,995.1953 " fill="none" style="stroke:#181818;stroke-width:1.0;"/><path d="M169,741.8594 L179,741.8594 C194,741.8594 194,544.8203 209,544.8203 L219,544.8203 " fill="none" style="stroke:#181818;stroke-width:1.0;"/><rect fill="#F1F1F1" height="36.2969" rx="12.5" ry="12.5" style="stroke:#181818;stroke-width:1.5;" width="98" x="219" y="1258.5313"/><text fill="#000000" font-family="sans-serif" font-size="14" lengthAdjust="spacing" textLength="78" x="229" y="1281.5264">S/Vantaggi</text><rect fill="#F1F1F1" height="36.2969" rx="12.5" ry="12.5" style="stroke:#181818;stroke-width:1.5;" width="180" x="367" y="1117.7891"/><text fill="#000000" font-family="sans-serif" font-size="14" lengthAdjust="spacing" textLength="160" x="377" y="1140.7842">Condivisione di risorse</text><rect fill="#F1F1F1" height="36.2969" rx="12.5" ry="12.5" style="stroke:#181818;stroke-width:1.5;" width="383" x="597" y="1089.6406"/><text fill="#000000" font-family="sans-serif" font-size="14" lengthAdjust="spacing" textLength="363" x="607" y="1112.6357">Hardware: stampanti, plotter, memorie di massa...</text><path d="M547,1135.9375 L557,1135.9375 C572,1135.9375 572,1107.7891 587,1107.7891 L597,1107.7891 " fill="none" style="stroke:#181818;stroke-width:1.0;"/><rect fill="#F1F1F1" height="36.2969" rx="12.5" ry="12.5" style="stroke:#181818;stroke-width:1.5;" width="310" x="597" y="1145.9375"/><text fill="#000000" font-family="sans-serif" font-size="14" lengthAdjust="spacing" textLength="290" x="607" y="1168.9326">Software: programmi e servizi, dati (file)</text><path d="M547,1135.9375 L557,1135.9375 C572,1135.9375 572,1164.0859 587,1164.0859 L597,1164.0859 " fill="none" style="stroke:#181818;stroke-width:1.0;"/><path d="M317,1276.6797 L327,1276.6797 C342,1276.6797 342,1135.9375 357,1135.9375 L367,1135.9375 " fill="none" style="stroke:#181818;stroke-width:1.0;"/><rect fill="#F1F1F1" height="36.2969" rx="12.5" ry="12.5" style="stroke:#181818;stroke-width:1.5;" width="264" x="367" y="1258.5313"/><text fill="#000000" font-family="sans-serif" font-size="14" lengthAdjust="spacing" textLength="244" x="377" y="1281.5264">Riduzione dei costi dello hardware</text><rect fill="#F1F1F1" height="36.2969" rx="12.5" ry="12.5" style="stroke:#181818;stroke-width:1.5;" width="219" x="681" y="1202.2344"/><text fill="#000000" font-family="sans-serif" font-size="14" lengthAdjust="spacing" textLength="199" x="691" y="1225.2295">Rapporto prestazioni/costo</text><path d="M631,1276.6797 L641,1276.6797 C656,1276.6797 656,1220.3828 671,1220.3828 L681,1220.3828 " fill="none" style="stroke:#181818;stroke-width:1.0;"/><rect fill="#F1F1F1" height="36.2969" rx="12.5" ry="12.5" style="stroke:#181818;stroke-width:1.5;" width="486" x="681" y="1258.5313"/><text fill="#000000" font-family="sans-serif" font-size="14" lengthAdjust="spacing" textLength="466" x="691" y="1281.5264">Scalabilità: costo marginale ridotto per aumentare le prestazioni</text><path d="M631,1276.6797 L641,1276.6797 C656,1276.6797 656,1276.6797 671,1276.6797 L681,1276.6797 " fill="none" style="stroke:#181818;stroke-width:1.0;"/><rect fill="#F1F1F1" height="36.2969" rx="12.5" ry="12.5" style="stroke:#181818;stroke-width:1.5;" width="326" x="681" y="1314.8281"/><text fill="#000000" font-family="sans-serif" font-size="14" lengthAdjust="spacing" textLength="306" x="691" y="1337.8232">Affidabilità: repliche servizi, backup dati...</text><path d="M631,1276.6797 L641,1276.6797 C656,1276.6797 656,1332.9766 671,1332.9766 L681,1332.9766 " fill="none" style="stroke:#181818;stroke-width:1.0;"/><path d="M317,1276.6797 L327,1276.6797 C342,1276.6797 342,1276.6797 357,1276.6797 L367,1276.6797 " fill="none" style="stroke:#181818;stroke-width:1.0;"/><rect fill="#F1F1F1" height="36.2969" rx="12.5" ry="12.5" style="stroke:#181818;stroke-width:1.5;" width="247" x="367" y="1399.2734"/><text fill="#000000" font-family="sans-serif" font-size="14" lengthAdjust="spacing" textLength="227" x="377" y="1422.2686">Affidabilità (fault tollerance)(19</text><rect fill="#F1F1F1" height="36.2969" rx="12.5" ry="12.5" style="stroke:#181818;stroke-width:1.5;" width="137" x="664" y="1371.125"/><text fill="#000000" font-family="sans-serif" font-size="14" lengthAdjust="spacing" textLength="117" x="674" y="1394.1201">ARPANET (1969)</text><path d="M614,1417.4219 L624,1417.4219 C639,1417.4219 639,1389.2734 654,1389.2734 L664,1389.2734 " fill="none" style="stroke:#181818;stroke-width:1.0;"/><rect fill="#F1F1F1" height="36.2969" rx="12.5" ry="12.5" style="stroke:#181818;stroke-width:1.5;" width="129" x="664" y="1427.4219"/><text fill="#000000" font-family="sans-serif" font-size="14" lengthAdjust="spacing" textLength="109" x="674" y="1450.417">Internet (1983)</text><path d="M614,1417.4219 L624,1417.4219 C639,1417.4219 639,1445.5703 654,1445.5703 L664,1445.5703 " fill="none" style="stroke:#181818;stroke-width:1.0;"/><path d="M317,1276.6797 L327,1276.6797 C342,1276.6797 342,1417.4219 357,1417.4219 L367,1417.4219 " fill="none" style="stroke:#181818;stroke-width:1.0;"/><path d="M169,741.8594 L179,741.8594 C194,741.8594 194,1276.6797 209,1276.6797 L219,1276.6797 " fill="none" style="stroke:#181818;stroke-width:1.0;"/><!--MD5=[12e19c1adf231df8d32fa728aa48a3e5]
@startmindmap
* Le reti di computer
** Come sono fatte
*** Due o più computer autonomi interconnessi tramite intefacce, dispositivi e mezzi trasmissivi
*** Modello Client/Server
*** Modello Peer2Peer
*** Protocolli di rete
**** HTTP/s (app)
**** POP3/IMAP4 (app)
**** SMTP (app)
**** FTP (app)
**** TCP (tra)
**** UDP (tra)
**** IP (rete)
*** Stack ISO/OSI
**** Applicazione (7)
**** Presentazione (6)
**** Sessione (5)
**** Trasporto (4)
**** Rete (3)
**** Collegamento (2)
**** Fisico (1)
*** Tipologie di rete per estensione geografica
**** LAN o WLAN
**** MAN
**** WAN
** S/Vantaggi
*** Condivisione di risorse
**** Hardware: stampanti, plotter, memorie di massa...
**** Software: programmi e servizi, dati (file)
*** Riduzione dei costi dello hardware
**** Rapporto prestazioni/costo
**** Scalabilità: costo marginale ridotto per aumentare le prestazioni
**** Affidabilità: repliche servizi, backup dati...
*** Affidabilità (fault tollerance)(19
**** ARPANET (1969)
**** Internet (1983)
@endmindmap

PlantUML version 1.2022.13beta2(Unknown compile time)
(GPL source distribution)
Java Runtime: Java(TM) SE Runtime Environment
JVM: Java HotSpot(TM) 64-Bit Server VM
Default Encoding: UTF-8
Language: en
Country: US
--></g></svg>